<svg xmlns="http://www.w3.org/2000/svg" viewBox="0 0 64 64" width="64" height="64">
  <defs>
    <clipPath id="sombrero">
      <path d="M32 4 C20 4 12 14 12 24 L12 28 L4 32 C2 33 2 35 4 36 L12 40 L12 42 C12 44 14 46 16 46 L48 46 C50 46 52 44 52 42 L52 40 L60 36 C62 35 62 33 60 32 L52 28 L52 24 C52 14 44 4 32 4 Z"/>
    </clipPath>
  </defs>

  <!-- Sombrero outline -->
  <path d="M32 4 C20 4 12 14 12 24 L12 28 L4 32 C2 33 2 35 4 36 L12 40 L12 42 C12 44 14 46 16 46 L48 46 C50 46 52 44 52 42 L52 40 L60 36 C62 35 62 33 60 32 L52 28 L52 24 C52 14 44 4 32 4 Z"
        fill="none" stroke="#b5daff" stroke-width="1.5" stroke-linejoin="round"/>

  <!-- Neural network inside sombrero -->
  <g clip-path="url(#sombrero)">
    <!-- Edges -->
    <line x1="22" y1="18" x2="32" y2="12" stroke="#b5daff" stroke-width="0.8" opacity="0.4"/>
    <line x1="32" y1="12" x2="42" y2="18" stroke="#b5daff" stroke-width="0.8" opacity="0.4"/>
    <line x1="22" y1="18" x2="26" y2="28" stroke="#b5daff" stroke-width="0.8" opacity="0.4"/>
    <line x1="42" y1="18" x2="38" y2="28" stroke="#b5daff" stroke-width="0.8" opacity="0.4"/>
    <line x1="32" y1="12" x2="32" y2="24" stroke="#b5daff" stroke-width="0.8" opacity="0.4"/>
    <line x1="26" y1="28" x2="32" y2="24" stroke="#b5daff" stroke-width="0.8" opacity="0.4"/>
    <line x1="38" y1="28" x2="32" y2="24" stroke="#b5daff" stroke-width="0.8" opacity="0.4"/>
    <line x1="26" y1="28" x2="20" y2="36" stroke="#b5daff" stroke-width="0.8" opacity="0.4"/>
    <line x1="38" y1="28" x2="44" y2="36" stroke="#b5daff" stroke-width="0.8" opacity="0.4"/>
    <line x1="32" y1="24" x2="32" y2="36" stroke="#b5daff" stroke-width="0.8" opacity="0.4"/>
    <line x1="20" y1="36" x2="32" y2="36" stroke="#b5daff" stroke-width="0.8" opacity="0.4"/>
    <line x1="44" y1="36" x2="32" y2="36" stroke="#b5daff" stroke-width="0.8" opacity="0.4"/>

    <!-- Nodes -->
    <circle cx="32" cy="12" r="2.5" fill="#b5daff"/>
    <circle cx="22" cy="18" r="2" fill="#b5daff"/>
    <circle cx="42" cy="18" r="2" fill="#b5daff"/>
    <circle cx="32" cy="24" r="3" fill="#b5daff"/>
    <circle cx="26" cy="28" r="2" fill="#b5daff"/>
    <circle cx="38" cy="28" r="2" fill="#b5daff"/>
    <circle cx="20" cy="36" r="1.5" fill="#b5daff" opacity="0.7"/>
    <circle cx="32" cy="36" r="2" fill="#b5daff" opacity="0.7"/>
    <circle cx="44" cy="36" r="1.5" fill="#b5daff" opacity="0.7"/>
  </g>
</svg>
